<?xml version="1.0" encoding="UTF-8" standalone="no"?>
<!DOCTYPE svg PUBLIC "-//W3C//DTD SVG 1.1//EN"
 "http://www.w3.org/Graphics/SVG/1.1/DTD/svg11.dtd">
<!-- Generated by graphviz version 2.31.20130125.0545 (20130125.0545)
 -->
<!-- Title: G Pages: 1 -->
<svg width="724pt" height="1483pt"
 viewBox="0.00 0.00 724.00 1483.00" xmlns="http://www.w3.org/2000/svg" xmlns:xlink="http://www.w3.org/1999/xlink">
<g id="graph0" class="graph" transform="scale(1 1) rotate(0) translate(4 1479)">
<title>G</title>
<polygon fill="white" stroke="white" points="-4,5 -4,-1479 721,-1479 721,5 -4,5"/>
<g id="clust1" class="cluster"><title>cluster_global</title>
<path fill="none" stroke="gray" d="M279,-314C279,-314 696,-314 696,-314 702,-314 708,-320 708,-326 708,-326 708,-1455 708,-1455 708,-1461 702,-1467 696,-1467 696,-1467 279,-1467 279,-1467 273,-1467 267,-1461 267,-1455 267,-1455 267,-326 267,-326 267,-320 273,-314 279,-314"/>
<text text-anchor="middle" x="487.5" y="-1452" font-family="Times,serif" font-size="11.00" fill="gray">global</text>
</g>
<!-- \\MAKE_CLI -->
<g id="node1" class="node"><title>\\MAKE_CLI</title>
<g id="a_node1"><a xlink:href="includes.class-make-cli.html" xlink:title="MAKE_CLI" target="_parent">
<polygon fill="none" stroke="black" points="640.309,-1330 571.691,-1330 571.691,-1294 640.309,-1294 640.309,-1330"/>
<text text-anchor="middle" x="606" y="-1307.6" font-family="Courier,monospace" font-size="11.00">MAKE_CLI</text>
</a>
</g>
</g>
<!-- \\WP_CLI_Command -->
<g id="node23" class="node"><title>\\WP_CLI_Command</title>
<ellipse fill="none" stroke="black" cx="317" cy="-288" rx="93.807" ry="18"/>
<text text-anchor="middle" x="317" y="-282.4" font-family="Times,serif" font-size="14.00" fill="gray">\WP_CLI_Command</text>
</g>
<!-- \\MAKE_CLI&#45;&gt;\\WP_CLI_Command -->
<g id="edge1" class="edge"><title>\\MAKE_CLI&#45;&gt;\\WP_CLI_Command</title>
<path fill="none" stroke="black" d="M571.431,-1311.37C550.999,-1309.08 526.183,-1302.5 512,-1285 375.226,-1116.2 585.375,-471.452 440,-310 434.1,-303.447 426.964,-298.429 419.138,-294.621"/>
<polygon fill="none" stroke="black" points="420.246,-291.291 409.668,-290.687 417.56,-297.755 420.246,-291.291"/>
</g>
<!-- \\ContextlyActivate -->
<g id="node2" class="node"><title>\\ContextlyActivate</title>
<g id="a_node2"><a xlink:href="includes.contextly-related-links.contextly-linker.html" xlink:title="ContextlyActivate" target="_parent">
<polygon fill="none" stroke="black" points="670.218,-1384 541.782,-1384 541.782,-1348 670.218,-1348 670.218,-1384"/>
<text text-anchor="middle" x="606" y="-1361.6" font-family="Courier,monospace" font-size="11.00">ContextlyActivate</text>
</a>
</g>
</g>
<!-- \\Easy_CF_Validator_Url -->
<g id="node3" class="node"><title>\\Easy_CF_Validator_Url</title>
<g id="a_node3"><a xlink:href="includes.ftms.html" xlink:title="Easy_CF_Validator_Url" target="_parent">
<polygon fill="none" stroke="black" points="683.123,-952 528.877,-952 528.877,-916 683.123,-916 683.123,-952"/>
<text text-anchor="middle" x="606" y="-929.6" font-family="Courier,monospace" font-size="11.00">Easy_CF_Validator_Url</text>
</a>
</g>
</g>
<!-- \\Easy_CF_Validator -->
<g id="node24" class="node"><title>\\Easy_CF_Validator</title>
<ellipse fill="none" stroke="black" cx="317" cy="-234" rx="89.2157" ry="18"/>
<text text-anchor="middle" x="317" y="-228.4" font-family="Times,serif" font-size="14.00" fill="gray">\Easy_CF_Validator</text>
</g>
<!-- \\Easy_CF_Validator_Url&#45;&gt;\\Easy_CF_Validator -->
<g id="edge2" class="edge"><title>\\Easy_CF_Validator_Url&#45;&gt;\\Easy_CF_Validator</title>
<path fill="none" stroke="black" d="M528.658,-920.517C522.37,-916.966 516.655,-912.531 512,-907 325.977,-685.975 633.081,-475.888 440,-261 432.563,-252.723 423.207,-246.678 413.001,-242.305"/>
<polygon fill="none" stroke="black" points="414.013,-238.947 403.42,-238.741 411.573,-245.508 414.013,-238.947"/>
</g>
<!-- \\Markdown_Parser -->
<g id="node4" class="node"><title>\\Markdown_Parser</title>
<g id="a_node4"><a xlink:href="includes.markdown.markdown.html" xlink:title="Markdown_Parser" target="_parent">
<polygon fill="none" stroke="black" points="663.516,-1276 548.484,-1276 548.484,-1240 663.516,-1240 663.516,-1276"/>
<text text-anchor="middle" x="606" y="-1253.6" font-family="Courier,monospace" font-size="11.00">Markdown_Parser</text>
</a>
</g>
</g>
<!-- \\mtekk_order_bender -->
<g id="node5" class="node"><title>\\mtekk_order_bender</title>
<g id="a_node5"><a xlink:href="includes.order-bender.html" xlink:title="mtekk_order_bender" target="_parent">
<polygon fill="none" stroke="black" points="673.319,-1222 538.681,-1222 538.681,-1186 673.319,-1186 673.319,-1222"/>
<text text-anchor="middle" x="606" y="-1199.6" font-family="Courier,monospace" font-size="11.00">mtekk_order_bender</text>
</a>
</g>
</g>
<!-- \\QMT_Terms -->
<g id="node6" class="node"><title>\\QMT_Terms</title>
<g id="a_node6"><a xlink:href="includes.query-multiple-taxonomies.core.html" xlink:title="QMT_Terms" target="_parent">
<polygon fill="none" stroke="black" points="643.911,-1168 568.089,-1168 568.089,-1132 643.911,-1132 643.911,-1168"/>
<text text-anchor="middle" x="606" y="-1145.6" font-family="Courier,monospace" font-size="11.00">QMT_Terms</text>
</a>
</g>
</g>
<!-- \\QMT_URL -->
<g id="node7" class="node"><title>\\QMT_URL</title>
<g id="a_node7"><a xlink:href="includes.query-multiple-taxonomies.core.html" xlink:title="QMT_URL" target="_parent">
<polygon fill="none" stroke="black" points="637.208,-1114 574.792,-1114 574.792,-1078 637.208,-1078 637.208,-1114"/>
<text text-anchor="middle" x="606" y="-1091.6" font-family="Courier,monospace" font-size="11.00">QMT_URL</text>
</a>
</g>
</g>
<!-- \\QMT_Template -->
<g id="node8" class="node"><title>\\QMT_Template</title>
<g id="a_node8"><a xlink:href="includes.query-multiple-taxonomies.core.html" xlink:title="QMT_Template" target="_parent">
<polygon fill="none" stroke="black" points="653.713,-1060 558.287,-1060 558.287,-1024 653.713,-1024 653.713,-1060"/>
<text text-anchor="middle" x="606" y="-1037.6" font-family="Courier,monospace" font-size="11.00">QMT_Template</text>
</a>
</g>
</g>
<!-- \\Mustache -->
<g id="node9" class="node"><title>\\Mustache</title>
<g id="a_node9"><a xlink:href="includes.query-multiple-taxonomies.mustache.Mustache.html" xlink:title="Mustache" target="_parent">
<polygon fill="none" stroke="black" points="640.309,-1006 571.691,-1006 571.691,-970 640.309,-970 640.309,-1006"/>
<text text-anchor="middle" x="606" y="-983.6" font-family="Courier,monospace" font-size="11.00">Mustache</text>
</a>
</g>
</g>
<!-- \\MustacheException -->
<g id="node10" class="node"><title>\\MustacheException</title>
<g id="a_node10"><a xlink:href="includes.query-multiple-taxonomies.mustache.Mustache.html" xlink:title="MustacheException" target="_parent">
<polygon fill="none" stroke="black" points="670.218,-628 541.782,-628 541.782,-592 670.218,-592 670.218,-628"/>
<text text-anchor="middle" x="606" y="-605.6" font-family="Courier,monospace" font-size="11.00">MustacheException</text>
</a>
</g>
</g>
<!-- \\Exception -->
<g id="node25" class="node"><title>\\Exception</title>
<ellipse fill="none" stroke="black" cx="317" cy="-180" rx="52.7417" ry="18"/>
<text text-anchor="middle" x="317" y="-174.4" font-family="Times,serif" font-size="14.00" fill="gray">\Exception</text>
</g>
<!-- \\MustacheException&#45;&gt;\\Exception -->
<g id="edge3" class="edge"><title>\\MustacheException&#45;&gt;\\Exception</title>
<path fill="none" stroke="black" d="M541.607,-601.732C530.469,-597.662 519.924,-591.701 512,-583 397.433,-457.205 558.58,-329.021 440,-207 424.469,-191.018 401.756,-183.515 380.128,-180.26"/>
<polygon fill="none" stroke="black" points="380.317,-176.757 369.966,-179.016 379.466,-183.705 380.317,-176.757"/>
</g>
<!-- \\scbForms -->
<g id="node11" class="node"><title>\\scbForms</title>
<g id="a_node11"><a xlink:href="includes.query-multiple-taxonomies.scb.Forms.html" xlink:title="scbForms" target="_parent">
<polygon fill="none" stroke="black" points="640.309,-898 571.691,-898 571.691,-862 640.309,-862 640.309,-898"/>
<text text-anchor="middle" x="606" y="-875.6" font-family="Courier,monospace" font-size="11.00">scbForms</text>
</a>
</g>
</g>
<!-- \\scbLoad4 -->
<g id="node12" class="node"><title>\\scbLoad4</title>
<g id="a_node12"><a xlink:href="includes.query-multiple-taxonomies.scb.load.html" xlink:title="scbLoad4" target="_parent">
<polygon fill="none" stroke="black" points="640.309,-844 571.691,-844 571.691,-808 640.309,-808 640.309,-844"/>
<text text-anchor="middle" x="606" y="-821.6" font-family="Courier,monospace" font-size="11.00">scbLoad4</text>
</a>
</g>
</g>
<!-- \\scbOptions -->
<g id="node13" class="node"><title>\\scbOptions</title>
<g id="a_node13"><a xlink:href="includes.query-multiple-taxonomies.scb.Options.html" xlink:title="scbOptions" target="_parent">
<polygon fill="none" stroke="black" points="647.011,-790 564.989,-790 564.989,-754 647.011,-754 647.011,-790"/>
<text text-anchor="middle" x="606" y="-767.6" font-family="Courier,monospace" font-size="11.00">scbOptions</text>
</a>
</g>
</g>
<!-- \\scbUtil -->
<g id="node14" class="node"><title>\\scbUtil</title>
<g id="a_node14"><a xlink:href="includes.query-multiple-taxonomies.scb.Util.html" xlink:title="scbUtil" target="_parent">
<polygon fill="none" stroke="black" points="637.208,-736 574.792,-736 574.792,-700 637.208,-700 637.208,-736"/>
<text text-anchor="middle" x="606" y="-713.6" font-family="Courier,monospace" font-size="11.00">scbUtil</text>
</a>
</g>
</g>
<!-- \\scbWidget -->
<g id="node15" class="node"><title>\\scbWidget</title>
<g id="a_node15"><a xlink:href="includes.query-multiple-taxonomies.scb.Widget.html" xlink:title="«abstract»&lt;br/&gt;scbWidget" target="_parent">
<polygon fill="none" stroke="black" points="358.5,-1438 275.5,-1438 275.5,-1402 358.5,-1402 358.5,-1438"/>
<text text-anchor="start" x="284" y="-1421.5" font-family="Courier,monospace" font-size="11.00">«abstract»</text>
<text text-anchor="start" x="287.5" y="-1410.5" font-family="Courier,monospace" font-size="11.00">scbWidget</text>
</a>
</g>
</g>
<!-- \\WP_Widget -->
<g id="node26" class="node"><title>\\WP_Widget</title>
<ellipse fill="none" stroke="black" cx="61" cy="-1420" rx="61.1507" ry="18"/>
<text text-anchor="middle" x="61" y="-1414.4" font-family="Times,serif" font-size="14.00" fill="gray">\WP_Widget</text>
</g>
<!-- \\scbWidget&#45;&gt;\\WP_Widget -->
<g id="edge4" class="edge"><title>\\scbWidget&#45;&gt;\\WP_Widget</title>
<path fill="none" stroke="black" d="M275.472,-1420C237.059,-1420 178.547,-1420 132.49,-1420"/>
<polygon fill="none" stroke="black" points="132.268,-1416.5 122.268,-1420 132.268,-1423.5 132.268,-1416.5"/>
</g>
<!-- \\Taxonomy_Drill_Down_Widget -->
<g id="node16" class="node"><title>\\Taxonomy_Drill_Down_Widget</title>
<g id="a_node16"><a xlink:href="includes.query-multiple-taxonomies.widget.html" xlink:title="Taxonomy_Drill_Down_Widget" target="_parent">
<polygon fill="none" stroke="black" points="699.628,-1438 512.372,-1438 512.372,-1402 699.628,-1402 699.628,-1438"/>
<text text-anchor="middle" x="606" y="-1415.6" font-family="Courier,monospace" font-size="11.00">Taxonomy_Drill_Down_Widget</text>
</a>
</g>
</g>
<!-- \\Taxonomy_Drill_Down_Widget&#45;&gt;\\scbWidget -->
<g id="edge5" class="edge"><title>\\Taxonomy_Drill_Down_Widget&#45;&gt;\\scbWidget</title>
<path fill="none" stroke="black" d="M512.216,-1420C464.709,-1420 408.692,-1420 369.057,-1420"/>
<polygon fill="none" stroke="black" points="368.842,-1416.5 358.841,-1420 368.841,-1423.5 368.842,-1416.5"/>
</g>
<!-- \\QMT_List_Walker -->
<g id="node17" class="node"><title>\\QMT_List_Walker</title>
<g id="a_node17"><a xlink:href="includes.query-multiple-taxonomies.widget.html" xlink:title="QMT_List_Walker" target="_parent">
<polygon fill="none" stroke="black" points="663.516,-574 548.484,-574 548.484,-538 663.516,-538 663.516,-574"/>
<text text-anchor="middle" x="606" y="-551.6" font-family="Courier,monospace" font-size="11.00">QMT_List_Walker</text>
</a>
</g>
</g>
<!-- \\Walker_Category -->
<g id="node27" class="node"><title>\\Walker_Category</title>
<ellipse fill="none" stroke="black" cx="317" cy="-126" rx="81.6833" ry="18"/>
<text text-anchor="middle" x="317" y="-120.4" font-family="Times,serif" font-size="14.00" fill="gray">\Walker_Category</text>
</g>
<!-- \\QMT_List_Walker&#45;&gt;\\Walker_Category -->
<g id="edge6" class="edge"><title>\\QMT_List_Walker&#45;&gt;\\Walker_Category</title>
<path fill="none" stroke="black" d="M548.346,-549.953C534.791,-545.937 521.509,-539.441 512,-529 397.433,-403.205 558.58,-275.021 440,-153 430.844,-143.578 419.192,-137.103 406.738,-132.708"/>
<polygon fill="none" stroke="black" points="407.673,-129.334 397.086,-129.738 405.614,-136.024 407.673,-129.334"/>
</g>
<!-- \\QMT_Dropdown_Walker -->
<g id="node18" class="node"><title>\\QMT_Dropdown_Walker</title>
<g id="a_node18"><a xlink:href="includes.query-multiple-taxonomies.widget.html" xlink:title="QMT_Dropdown_Walker" target="_parent">
<polygon fill="none" stroke="black" points="676.921,-520 535.079,-520 535.079,-484 676.921,-484 676.921,-520"/>
<text text-anchor="middle" x="606" y="-497.6" font-family="Courier,monospace" font-size="11.00">QMT_Dropdown_Walker</text>
</a>
</g>
</g>
<!-- \\Walker_CategoryDropdown -->
<g id="node28" class="node"><title>\\Walker_CategoryDropdown</title>
<ellipse fill="none" stroke="black" cx="317" cy="-72" rx="122.795" ry="18"/>
<text text-anchor="middle" x="317" y="-66.4" font-family="Times,serif" font-size="14.00" fill="gray">\Walker_CategoryDropdown</text>
</g>
<!-- \\QMT_Dropdown_Walker&#45;&gt;\\Walker_CategoryDropdown -->
<g id="edge7" class="edge"><title>\\QMT_Dropdown_Walker&#45;&gt;\\Walker_CategoryDropdown</title>
<path fill="none" stroke="black" d="M535.012,-491.056C526.356,-487.168 518.34,-481.961 512,-475 397.433,-349.205 558.58,-221.021 440,-99 435.69,-94.565 430.827,-90.783 425.588,-87.5634"/>
<polygon fill="none" stroke="black" points="426.913,-84.3026 416.446,-82.6602 423.604,-90.4713 426.913,-84.3026"/>
</g>
<!-- \\Easy_CF_Field_Toggle -->
<g id="node19" class="node"><title>\\Easy_CF_Field_Toggle</title>
<g id="a_node19"><a xlink:href="includes.reviews.html" xlink:title="Easy_CF_Field_Toggle" target="_parent">
<polygon fill="none" stroke="black" points="680.021,-412 531.979,-412 531.979,-376 680.021,-376 680.021,-412"/>
<text text-anchor="middle" x="606" y="-389.6" font-family="Courier,monospace" font-size="11.00">Easy_CF_Field_Toggle</text>
</a>
</g>
</g>
<!-- \\Easy_CF_Field -->
<g id="node29" class="node"><title>\\Easy_CF_Field</title>
<ellipse fill="none" stroke="black" cx="317" cy="-18" rx="73.6232" ry="18"/>
<text text-anchor="middle" x="317" y="-12.4" font-family="Times,serif" font-size="14.00" fill="gray">\Easy_CF_Field</text>
</g>
<!-- \\Easy_CF_Field_Toggle&#45;&gt;\\Easy_CF_Field -->
<g id="edge8" class="edge"><title>\\Easy_CF_Field_Toggle&#45;&gt;\\Easy_CF_Field</title>
<path fill="none" stroke="black" d="M531.98,-381.367C524.528,-377.7 517.64,-373.005 512,-367 411.601,-260.113 543.807,-148.581 440,-45 429.104,-34.1276 414.875,-27.208 399.998,-22.8852"/>
<polygon fill="none" stroke="black" points="400.709,-19.4551 390.157,-20.4042 398.998,-26.2427 400.709,-19.4551"/>
</g>
<!-- \\Easy_CF_Validator_Email -->
<g id="node20" class="node"><title>\\Easy_CF_Validator_Email</title>
<g id="a_node20"><a xlink:href="includes.search-terms-cpt.html" xlink:title="Easy_CF_Validator_Email" target="_parent">
<polygon fill="none" stroke="black" points="689.825,-682 522.175,-682 522.175,-646 689.825,-646 689.825,-682"/>
<text text-anchor="middle" x="606" y="-659.6" font-family="Courier,monospace" font-size="11.00">Easy_CF_Validator_Email</text>
</a>
</g>
</g>
<!-- \\Easy_CF_Validator_Email&#45;&gt;\\Easy_CF_Validator -->
<g id="edge9" class="edge"><title>\\Easy_CF_Validator_Email&#45;&gt;\\Easy_CF_Validator</title>
<path fill="none" stroke="black" d="M522.223,-645.894C518.503,-643.305 515.057,-640.356 512,-637 397.433,-511.205 558.58,-383.021 440,-261 432.245,-253.02 422.699,-247.153 412.392,-242.874"/>
<polygon fill="none" stroke="black" points="413.335,-239.494 402.741,-239.376 410.95,-246.075 413.335,-239.494"/>
</g>
<!-- \\Easy_CF_Field_Textarea -->
<g id="node21" class="node"><title>\\Easy_CF_Field_Textarea</title>
<g id="a_node21"><a xlink:href="includes.search-terms-cpt.html" xlink:title="Easy_CF_Field_Textarea" target="_parent">
<polygon fill="none" stroke="black" points="686.724,-466 525.276,-466 525.276,-430 686.724,-430 686.724,-466"/>
<text text-anchor="middle" x="606" y="-443.6" font-family="Courier,monospace" font-size="11.00">Easy_CF_Field_Textarea</text>
</a>
</g>
</g>
<!-- \\Easy_CF_Field_Textarea&#45;&gt;\\Easy_CF_Field -->
<g id="edge10" class="edge"><title>\\Easy_CF_Field_Textarea&#45;&gt;\\Easy_CF_Field</title>
<path fill="none" stroke="black" d="M525.169,-431.837C520.316,-428.806 515.849,-425.226 512,-421 397.433,-295.205 558.58,-167.021 440,-45 429.272,-33.9611 415.119,-26.9674 400.263,-22.6244"/>
<polygon fill="none" stroke="black" points="400.98,-19.1958 390.428,-20.1373 399.264,-25.9822 400.98,-19.1958"/>
</g>
<!-- \\Parsely -->
<g id="node22" class="node"><title>\\Parsely</title>
<g id="a_node22"><a xlink:href="includes.wp-parsely.wp-parsely.html" xlink:title="Parsely" target="_parent">
<polygon fill="none" stroke="black" points="637.208,-358 574.792,-358 574.792,-322 637.208,-322 637.208,-358"/>
<text text-anchor="middle" x="606" y="-335.6" font-family="Courier,monospace" font-size="11.00">Parsely</text>
</a>
</g>
</g>
</g>
</svg>
